<?xml version="1.0" encoding="utf-8"?>
<!-- Generator: Adobe Illustrator 21.0.0, SVG Export Plug-In . SVG Version: 6.00 Build 0)  -->
<svg version="1.1" id="Layer_1" xmlns="http://www.w3.org/2000/svg" xmlns:xlink="http://www.w3.org/1999/xlink" x="0px" y="0px"
	 viewBox="0 0 439 439" style="enable-background:new 0 0 439 439;" xml:space="preserve">
<style type="text/css">
	.st0{fill:#5B6982;}
</style>
<g>
	<g>
		<g>
			<path class="st0" d="M158.8,352.6c-3,0.6-4.4,2-4,4.3c0.4,2.3,2.1,3,5.1,2.3c3-0.8,4.4-2.1,4-4
				C163.5,353.1,161.8,352.2,158.8,352.6z"/>
			<path class="st0" d="M142.5,354.9c-3,0-4.6,1-4.6,3.1c0,2.5,1.6,3.5,4.9,3.1c3,0,4.6-1,4.6-3.1
				C147.3,355.6,145.7,354.5,142.5,354.9z"/>
			<path class="st0" d="M120.2,354c-0.8,2.1,0.5,3.5,3.7,4.3c2.9,1.1,4.7,0.6,5.4-1.7c0.6-2.1-0.7-3.6-3.7-4.6
				C122.8,351.3,121,351.9,120.2,354z"/>
			<path class="st0" d="M414.8,24.1C398.7,8.1,379.3,0,356.6,0H82.3c-22.7,0-42,8.1-58.1,24.1C8,40.2,0,59.6,0,82.3v274.4
				c0,22.7,8,42.1,24.1,58.2C40.2,430.9,59.6,439,82.3,439h64c4.2,0,7.3-0.1,9.4-0.4c2.1-0.3,4.2-1.5,6.3-3.7
				c2.1-2.2,3.1-5.4,3.1-9.6c0-0.6-0.1-7.1-0.1-19.4c-0.1-12.4-0.1-22.2-0.1-29.4l-6.6,1.1c-4.2,0.8-9.5,1.1-15.9,1
				c-6.4-0.1-13-0.8-19.9-2c-6.9-1.2-13.2-4.1-19.1-8.6c-5.9-4.5-10.1-10.3-12.6-17.6l-2.9-6.6c-1.9-4.4-4.9-9.2-9-14.6
				c-4.1-5.3-8.2-9-12.4-10.9l-2-1.4c-1.3-1-2.6-2.1-3.7-3.4c-1.1-1.3-2-2.7-2.6-4c-0.6-1.3-0.1-2.4,1.4-3.3
				c1.5-0.9,4.3-1.3,8.3-1.3l5.7,0.9c3.8,0.8,8.5,3,14.1,6.9c5.6,3.8,10.2,8.8,13.9,14.9c4.4,7.8,9.7,13.8,15.9,17.9
				c6.2,4.1,12.4,6.1,18.7,6.1c6.3,0,11.7-0.5,16.3-1.4c4.6-1,8.9-2.4,12.9-4.3c1.7-12.8,6.4-22.6,14-29.4
				c-10.9-1.1-20.6-2.9-29.3-5.1c-8.7-2.3-17.6-6-26.9-11.1c-9.2-5.1-16.9-11.5-23-19.2c-6.1-7.6-11.1-17.6-15-30
				c-3.9-12.4-5.9-26.7-5.9-42.9c0-23.1,7.5-42.7,22.6-58.9c-7-17.3-6.4-36.8,2-58.3c5.5-1.7,13.7-0.4,24.6,3.9
				c10.9,4.3,18.8,8,23.9,11c5,3,9.1,5.6,12.1,7.7c17.7-5,36-7.4,54.9-7.4c18.9,0,37.1,2.5,54.9,7.4l10.9-6.9
				c7.4-4.6,16.2-8.8,26.3-12.6c10.1-3.8,17.8-4.9,23.1-3.1c8.6,21.5,9.3,41,2.3,58.3c15,16.2,22.6,35.8,22.6,58.9
				c0,16.2-2,30.5-5.9,43c-3.9,12.5-8.9,22.5-15.1,30c-6.2,7.5-13.9,13.9-23.1,19c-9.2,5.1-18.2,8.9-26.9,11.1
				c-8.7,2.3-18.4,4-29.3,5.2C269,325,274,338.5,274,357v68.3c0,3.2,0.5,5.9,1.4,7.9c1,2,2.5,3.4,4.6,4.1c2.1,0.8,4,1.2,5.6,1.4
				c1.6,0.2,4,0.3,7,0.3h64.1c22.7,0,42.1-8.1,58.2-24.2c16.1-16.1,24.2-35.5,24.2-58.2V82.3C439,59.6,430.9,40.2,414.8,24.1z"/>
			<path class="st0" d="M87.4,319.2c-1.3,0.9-1.1,2.5,0.6,4.6c1.9,1.9,3.4,2.2,4.6,0.9c1.3-0.9,1.1-2.5-0.6-4.6
				C90,318.3,88.5,318,87.4,319.2z"/>
			<path class="st0" d="M78,312.1c-0.6,1.3,0.1,2.5,2,3.4c1.5,1,2.8,0.8,3.7-0.6c0.6-1.3-0.1-2.5-2-3.4
				C79.8,310.9,78.5,311.1,78,312.1z"/>
			<path class="st0" d="M96.2,330.3c-1.7,0.9-1.7,2.7,0,5.1c1.7,2.5,3.3,3.1,4.9,2c1.7-1.3,1.7-3.1,0-5.4
				C99.6,329.6,97.9,329,96.2,330.3z"/>
			<path class="st0" d="M106.2,343.2c-1.7,1.5-1.3,3.3,1.1,5.4c2.3,2.3,4.2,2.6,5.7,0.8c1.5-1.5,1.1-3.3-1.1-5.4
				C109.7,341.8,107.8,341.5,106.2,343.2z"/>
		</g>
	</g>
	<g>
	</g>
	<g>
	</g>
	<g>
	</g>
	<g>
	</g>
	<g>
	</g>
	<g>
	</g>
	<g>
	</g>
	<g>
	</g>
	<g>
	</g>
	<g>
	</g>
	<g>
	</g>
	<g>
	</g>
	<g>
	</g>
	<g>
	</g>
	<g>
	</g>
</g>
</svg>
