<?xml version="1.0" encoding="utf-8"?>
<!-- Generator: Adobe Illustrator 21.0.0, SVG Export Plug-In . SVG Version: 6.00 Build 0)  -->
<svg version="1.1" xmlns="http://www.w3.org/2000/svg" xmlns:xlink="http://www.w3.org/1999/xlink" x="0px" y="0px"
	 viewBox="0 0 169 169" style="enable-background:new 0 0 169 169;" xml:space="preserve">
<style type="text/css">
	.st0{fill:#FFFFFF;}
</style>
<g id="Layer_1">
</g>
<g id="Layer_2">
	<g>
		<g>
			<path class="st0" d="M122.4,0H46.7C20.9,0,0,20.9,0,46.7v75.7C0,148.1,20.9,169,46.7,169h75.7c25.8,0,46.7-20.9,46.7-46.7V46.6
				C169,20.9,148.1,0,122.4,0z M154,122c0,17.6-14.4,32-32,32H46.6C29.2,154,15,139.8,15,122.4V46.7C15,29.2,29.2,15,46.7,15h75.7
				c17.5,0,31.7,14.2,31.7,31.7L154,122L154,122z"/>
			<path class="st0" d="M84.3,41c-24,0-43.6,19.5-43.6,43.6c0,24,19.5,43.6,43.6,43.6s43.6-19.5,43.6-43.6
				C127.9,60.6,108.3,41,84.3,41z M84.3,113.2c-15.7,0-28.6-12.8-28.6-28.6C55.7,68.8,68.5,56,84.3,56s28.6,12.8,28.6,28.6
				C112.9,100.3,100,113.2,84.3,113.2z"/>
			<path class="st0" d="M129.7,28.3c-2.9,0-5.7,1.2-7.8,3.2c-2.1,2-3.2,4.9-3.2,7.8c0,2.9,1.2,5.7,3.2,7.8c2,2,4.9,3.2,7.8,3.2
				c2.9,0,5.7-1.2,7.8-3.2c2.1-2,3.2-4.9,3.2-7.8c0-2.9-1.2-5.7-3.2-7.8C135.4,29.5,132.6,28.3,129.7,28.3z"/>
		</g>
		<g>
		</g>
		<g>
		</g>
		<g>
		</g>
		<g>
		</g>
		<g>
		</g>
		<g>
		</g>
		<g>
		</g>
		<g>
		</g>
		<g>
		</g>
		<g>
		</g>
		<g>
		</g>
		<g>
		</g>
		<g>
		</g>
		<g>
		</g>
		<g>
		</g>
	</g>
</g>
</svg>
