<?xml version="1.0" encoding="utf-8"?>
<!-- Generator: Adobe Illustrator 21.0.0, SVG Export Plug-In . SVG Version: 6.00 Build 0)  -->
<svg version="1.1" id="Layer_1" xmlns="http://www.w3.org/2000/svg" xmlns:xlink="http://www.w3.org/1999/xlink" x="0px" y="0px"
	 viewBox="0 0 89 89" style="enable-background:new 0 0 89 89;" xml:space="preserve">
<style type="text/css">
	.st0{fill:#5B6982;}
</style>
<g>
	<g>
		<path class="st0" d="M57.3,24H30.7c-4.3,0-7.7,3.5-7.7,7.7v26.5c0,4.3,3.5,7.7,7.7,7.7h26.5c4.3,0,7.7-3.5,7.7-7.7V31.7
			C65,27.5,61.5,24,57.3,24z M44.5,58.5c-7.7,0-13.9-6.2-13.9-13.9c0-7.7,6.2-13.9,13.9-13.9c7.7,0,13.9,6.2,13.9,13.9
			C58.4,52.3,52.1,58.5,44.5,58.5z M58.8,33.6c-1.8,0-3.3-1.5-3.3-3.3c0-1.8,1.5-3.3,3.3-3.3c1.8,0,3.3,1.5,3.3,3.3
			C62.1,32.1,60.6,33.6,58.8,33.6z"/>
		<path class="st0" d="M44.5,36.6c-4.4,0-8,3.6-8,8c0,4.4,3.6,8,8,8c4.4,0,8-3.6,8-8C52.5,40.2,48.9,36.6,44.5,36.6z"/>
		<path class="st0" d="M44.5-0.4C19.7-0.4-0.4,19.7-0.4,44.5s20.1,44.9,44.9,44.9s44.9-20.1,44.9-44.9S69.3-0.4,44.5-0.4z M57.4,72
			H30.6C23.1,72,17,65.9,17,58.4V31.6C17,24.1,23.1,18,30.6,18h26.8C64.9,18,71,24.1,71,31.6v26.8C71,65.9,64.9,72,57.4,72z"/>
	</g>
	<g>
	</g>
	<g>
	</g>
	<g>
	</g>
	<g>
	</g>
	<g>
	</g>
	<g>
	</g>
	<g>
	</g>
	<g>
	</g>
	<g>
	</g>
	<g>
	</g>
	<g>
	</g>
	<g>
	</g>
	<g>
	</g>
	<g>
	</g>
	<g>
	</g>
</g>
</svg>
