<?xml version="1.0" encoding="utf-8"?>
<!-- Generator: Adobe Illustrator 21.0.0, SVG Export Plug-In . SVG Version: 6.00 Build 0)  -->
<svg version="1.1" xmlns="http://www.w3.org/2000/svg" xmlns:xlink="http://www.w3.org/1999/xlink" x="0px" y="0px"
	 viewBox="0 0 112.2 112.2" style="enable-background:new 0 0 112.2 112.2;" xml:space="preserve">
<style type="text/css">
	.st0{fill:#5B6982;}
</style>
<g id="Layer_1">
</g>
<g id="Layer_2">
	<g>
		<g>
			<g>
				<path class="st0" d="M56.1,0C25.1,0,0,25.1,0,56.1s25.1,56.1,56.1,56.1c31,0,56.1-25.1,56.1-56.1S87.1,0,56.1,0z M41.2,83.5h-13
					v-40h13V83.5z M34.6,37.5L34.6,37.5c-4.6,0-7.5-3.1-7.5-7c0-4,3-7,7.6-7c4.6,0,7.4,3,7.5,7C42.2,34.4,39.2,37.5,34.6,37.5z
					 M90.2,83.5h-14V62.1c0-5.4-1.9-9-6.7-9c-3.7,0-5.9,2.5-6.8,4.9c-0.4,0.9-0.4,2-0.4,3.2v22.3H48.9c0,0,0.2-36.2,0-40h13.3v5.9
					c1.8-2.7,5-6.6,12.3-6.6c9,0,15.7,5.7,15.7,17.9V83.5z"/>
				<path class="st0" d="M62.2,49.5v-0.1C62.2,49.4,62.1,49.4,62.2,49.5L62.2,49.5z"/>
			</g>
		</g>
	</g>
</g>
</svg>
