<svg id="Layer_1" data-name="Layer 1" xmlns="http://www.w3.org/2000/svg" viewBox="0 0 430 430"><defs><style>.cls-1{fill:#5b6982;}</style></defs><title>linkedin-logo</title><path id="LinkedIn_alt_" data-name="LinkedIn (alt)" class="cls-1" d="M398.25,0H31.77C14.22,0,0,13.79,0,30.81V399.18C0,416.2,14.23,430,31.77,430H398.25c17.54,0,31.75-13.81,31.75-30.82V30.81C430,13.79,415.79,0,398.25,0ZM130,360H65V166h65ZM97.53,139h-.44c-21.79,0-35.92-14.9-35.92-33.56,0-19,14.54-33.54,36.77-33.54s35.9,14.5,36.33,33.54C134.27,124.1,120.17,139,97.53,139ZM364,360H299V256.21c0-26.08-9.36-43.88-32.71-43.88-17.87,0-28.47,12-33.13,23.6-1.73,4.14-2.15,9.93-2.15,15.71V360H166.43s.85-175.81,0-194H231v27.5c8.6-13.22,24-32.07,58.38-32.07,42.65,0,74.62,27.71,74.62,87.33V360ZM230.58,194c.11-.18.27-.4.42-.61V194Z"/></svg>