<?xml version="1.0" encoding="utf-8"?>
<!-- Generator: Adobe Illustrator 21.0.0, SVG Export Plug-In . SVG Version: 6.00 Build 0)  -->
<svg version="1.1" id="Layer_1" xmlns="http://www.w3.org/2000/svg" xmlns:xlink="http://www.w3.org/1999/xlink" x="0px" y="0px"
	 viewBox="0 0 50 41" style="enable-background:new 0 0 50 41;" xml:space="preserve">
<style type="text/css">
	.st0{fill:#5B6982;}
</style>
<g>
	<g>
		<g>
			<g>
				<path class="st0" d="M27,24.9v-1c0-1.2-0.7-2.2-1.9-2.5c-1.7-0.4-3.1,0.8-3.1,2.4l0,1.1c0,1,0.6,2,1.5,2.4
					C25.3,27.9,27,26.6,27,24.9z"/>
				<path class="st0" d="M29.1,26c-0.5,1.8-2.2,3.2-4.1,3.2c-2,0-3.6-1.3-4.1-3.2H4c-1.1,0-2.1-0.3-3-0.7V37c0,2.2,1.8,4,4,4h40
					c2.2,0,4-1.8,4-4V25.3c-0.9,0.4-1.9,0.7-3,0.7L29.1,26L29.1,26z"/>
				<path class="st0" d="M45.9,6h-9.6c-0.6-3.4-3.7-6-7.5-6h-7.7c-3.8,0-6.9,2.6-7.5,6H4.1C1.9,6,0,7.7,0,9.7v9.5c0,0,1.3,4,3.5,3.8
					h16.8c0.1-0.9,0.6-1.9,1.3-2.7c0,0,0.1,0,0.1-0.1c0.2-0.2,0.4-0.3,0.5-0.4c0.1,0,0.1-0.1,0.2-0.1c0.2-0.1,0.3-0.2,0.5-0.3
					c0.1-0.1,0.3-0.1,0.4-0.1c0.1,0,0.2-0.1,0.4-0.1c0.3-0.1,0.6-0.1,0.9-0.1c0.3,0,0.6,0,0.9,0.1c0.1,0,0.2,0.1,0.4,0.1
					c0.1,0,0.3,0.1,0.4,0.1c0.2,0.1,0.3,0.2,0.5,0.3c0.1,0,0.2,0.1,0.2,0.1c0.2,0.1,0.4,0.3,0.5,0.4c0,0,0.1,0,0.1,0.1
					c0.8,0.7,1.3,1.8,1.3,3.7h16.8c2.2-0.8,4.2-4.8,4.2-4.8V9.7C50,7.7,48.1,6,45.9,6z M17.1,6c0.5-1.5,1.9-2.7,3.7-3h7.7
					c1.7,0.3,3.1,1.5,3.7,3H17.1z"/>
			</g>
		</g>
	</g>
	<g>
	</g>
	<g>
	</g>
	<g>
	</g>
	<g>
	</g>
	<g>
	</g>
	<g>
	</g>
	<g>
	</g>
	<g>
	</g>
	<g>
	</g>
	<g>
	</g>
	<g>
	</g>
	<g>
	</g>
	<g>
	</g>
	<g>
	</g>
	<g>
	</g>
</g>
</svg>
