<?xml version="1.0" encoding="utf-8"?>
<!-- Generator: Adobe Illustrator 21.0.0, SVG Export Plug-In . SVG Version: 6.00 Build 0)  -->
<svg version="1.1" id="Layer_1" xmlns="http://www.w3.org/2000/svg" xmlns:xlink="http://www.w3.org/1999/xlink" x="0px" y="0px"
	 viewBox="0 0 299 297" style="enable-background:new 0 0 299 297;" xml:space="preserve">
<style type="text/css">
	.st0{fill:#5B6982;}
</style>
<g>
	<g>
		<path class="st0" d="M99.5,94.5c0.1,0,5.6-1.7,5.6-1.7c4-1.2,8.3,0.9,9.7,4.8l7.6,20.9l7.6-21c1.4-3.9,5.7-6.1,9.7-4.8l5.6,1.7
			c8.3,2.8,14.2,9.9,15.5,18.4v-62c0-3.2-2.6-5.8-5.8-5.8H89.8c-3.2,0-5.8,2.6-5.8,5.8v62.1C85.3,104.4,91.2,97.3,99.5,94.5z
			 M122.4,53.1c10.2,0,18.6,8.3,18.6,18.6c0,10.2-8.3,18.6-18.6,18.6s-18.6-8.3-18.6-18.6C103.9,61.4,112.2,53.1,122.4,53.1z"/>
		<path class="st0" d="M141.7,109.6l-8.5,23.4H145v-17.2C145,113.3,143.7,111,141.7,109.6L141.7,109.6z"/>
		<path class="st0" d="M99,115.8V133h11.8l-8.5-23.4C100.3,111,99,113.3,99,115.8z"/>
		<path class="st0" d="M251.5,0h-202C43.7,0,39,4.7,39,10.5v276c0,5.8,4.7,10.5,10.5,10.5h202c5.8,0,10.5-4.7,10.5-10.5v-276
			C262,4.7,257.3,0,251.5,0z M75.9,29h93.2c4.3,0,7.9,3.5,7.9,7.9v104.2c0,4.3-3.5,7.9-7.9,7.9H75.9c-4.3,0-7.9-3.5-7.9-7.9V36.9
			C68,32.5,71.5,29,75.9,29z M225.7,249H74.9c-3.5,0-6.7-2.2-7.7-5.5c-1.7-5.5,2.4-10.5,7.6-10.5h150.8c3.5,0,6.7,2.2,7.7,5.5
			C235,244,230.9,249,225.7,249z M225.7,193H74.9c-3.5,0-6.7-2.2-7.7-5.5c-1.7-5.5,2.4-10.5,7.6-10.5h150.8c3.5,0,6.7,2.2,7.7,5.5
			C235,188,230.9,193,225.7,193z M224.7,119h-18.8c-3.5,0-6.7-2.2-7.7-5.5c-1.7-5.5,2.4-10.5,7.6-10.5h18.8c3.5,0,6.7,2.2,7.7,5.5
			C234,114,229.9,119,224.7,119z M224.7,82h-18.8c-3.5,0-6.7-2.2-7.7-5.5c-1.7-5.5,2.4-10.5,7.6-10.5h18.8c3.5,0,6.7,2.2,7.7,5.5
			C234,77,229.9,82,224.7,82z"/>
	</g>
</g>
</svg>
